<?xml version="1.0" encoding="utf-8"?>
<!-- Generator: Adobe Illustrator 25.4.1, SVG Export Plug-In . SVG Version: 6.00 Build 0)  -->
<svg version="1.1" id="Layer_1" xmlns="http://www.w3.org/2000/svg" xmlns:xlink="http://www.w3.org/1999/xlink" x="0px" y="0px"
	 viewBox="0 0 150 90" style="enable-background:new 0 0 150 90;" xml:space="preserve">
<style type="text/css">
	.st0{fill:#EB2027;}
	.st1{fill:none;}
	.st2{fill:#FFFFFF;}
</style>
<g>
	<g>
		<g>
			<path d="M5.28,70.77c-3.15-4.07-4.72-9.09-4.72-15.06c0-5.28,1.34-10.09,4.03-14.44c2.17-3.56,5.53-7.38,10.06-11.45l1.18,1.39
				c-6.25,6.25-9.37,13.44-9.37,21.59c0,5.79,1.32,10.44,3.96,13.95c3.01,3.98,7.26,5.97,12.77,5.97c0.69,0,1.6-0.07,2.71-0.21
				V37.87c-1.76-0.23-3.31-0.88-4.65-1.94l-2.15,1.94v23.67l-6.11,6.04l-1.11-1.18l1.94-1.94v-21.1l-4.23,4.16L8.4,46.4l16.59-16.59
				c1.29,2.36,2.59,3.54,3.89,3.54c0.74,0,2.2-0.9,4.37-2.71l1.04,1.25c-0.56,0.51-1.11,1.04-1.67,1.6
				c-0.56,0.56-1.11,1.11-1.67,1.67c-1.62,1.48-2.78,2.38-3.47,2.71v34.29c2.78-0.93,5.18-2.85,7.22-5.76l1.25,0.83
				c-4.12,6.66-9.69,10-16.73,10C13.31,77.22,8.65,75.07,5.28,70.77z"/>
			<path d="M37.21,71.81V46.65c0-0.22-0.03-0.67-0.08-1.34c-0.06-0.67-0.16-1.58-0.31-2.73l1.06-0.33c0.07,0.3,0.18,0.75,0.31,1.37
				c0.13,0.61,0.29,1.4,0.47,2.37c0.67-1.97,1.82-3.72,3.46-5.24l0.89,0.56c-0.41,0.56-0.74,1.07-1,1.53
				c-0.26,0.47-0.47,0.88-0.61,1.26c-0.19,0.67-0.28,1.73-0.28,3.18v13.78l7.09-6.08l3.07,2.96l1.79-1.51l0.84,0.95l-2.96,2.57
				v13.17c0.52,0.04,1.12,0.24,1.79,0.61l-0.56,1.06c-0.67-0.33-1.28-0.5-1.84-0.5c-0.71,0-1.32,0.19-1.84,0.56
				c-0.67,0.41-1,0.91-1,1.51c0,0.41,0.69,1.41,2.06,3.01c1.38,1.6,2.06,2.79,2.06,3.57c0,1.19-0.6,2.44-1.79,3.74
				c-0.3,0.3-0.71,0.68-1.23,1.14c-0.52,0.46-1.19,1.01-2.01,1.65l-0.78-0.95c1.6-1.34,2.4-2.45,2.4-3.35
				c0-0.41-0.48-1.43-1.45-3.07c-0.97-1.64-1.45-2.86-1.45-3.68c0-1.38,0.58-2.7,1.73-3.96V60.15l-1.39-1.28l-4.52,3.91v9.04
				l1.28,1.23l1.17-1l0.89,1l-4.57,3.85l-3.12-2.96l-1.79,1.56l-0.84-1L37.21,71.81z"/>
			<path d="M58.07,71.92V60.1c-0.37,0.04-0.65,0.06-0.84,0.06h-0.28c-0.45-0.04-0.91-0.07-1.39-0.11v-1.28
				c4.09,0,7.57-1.21,10.43-3.63l5.91,7.36l-9.93,6.58v3.12l2.57,1.56l4.97-3.35l0.73,1.12l-8.26,5.41l-4.46-2.73l-1.34,1.28
				l-0.84-1.06L58.07,71.92z M63.48,58.81l-1.51,0.5v8.26l5.58-3.79L63.48,58.81z"/>
			<path d="M75.19,71.87v-8.76c0-1.67-0.39-2.96-1.17-3.85L72.4,60.6l-0.84-1l5.19-4.46c1.38,1.6,2.16,3.07,2.34,4.41l3.24-4.41
				c1.67,2.38,2.77,3.57,3.29,3.57c0.26,0,0.52-0.19,0.78-0.56c0.11-0.15,0.22-0.3,0.33-0.45c0.11-0.15,0.22-0.3,0.33-0.45
				l1.06,0.78l-1.79,2.45c-0.86,0.89-1.69,1.34-2.51,1.34c-1,0-2.12-0.67-3.35-2.01l-1.39,1.9v10.1l2.57,1.79l2.4-1.67l0.78,1.06
				l-5.75,3.96l-4.35-3.01l-1.56,1.45l-0.84-0.95L75.19,71.87z"/>
			<path d="M105.29,60.1v9.15c0,1.93,0.32,3.22,0.95,3.85l1.73-1.45l0.84,1l-5.19,4.3c-1-0.82-1.64-1.73-1.9-2.73
				c-0.22-0.71-0.33-1.84-0.33-3.4l-7.2,6.14l-3.07-2.73l-1.73,1.45l-0.84-1l2.9-2.45v-9.26c0-1.79-0.33-3.05-1-3.79l-1.51,1.28
				l-0.84-0.95l4.97-4.35c1.52,1.41,2.29,3.46,2.29,6.14v10.71l1.34,1.12l4.69-4.07v-8.98l-1.17-1.17l-1.45,1.17l-0.84-0.95
				l4.52-3.96l3.07,3.01l1.9-1.51l0.84,1L105.29,60.1z"/>
			<path d="M131.85,67.01v-6.86h-1.39v-1.28c4.93,0,5.8-1.23,8.26-3.68c1.75,1.08,3.2,1.62,4.35,1.62c1.12,0,2.16-0.56,3.12-1.67
				l1.06,0.78l-6.53,8.93h5.63v7.14h1.45v1.28c-3.42,0-6.34,1.21-8.76,3.63c-1.53-1.12-2.92-1.67-4.18-1.67
				c-1.19,0-2.19,0.58-3.01,1.73l-1-0.67l6.75-9.26H131.85z M138.6,72.2c0.86,0,1.88,0.33,3.07,1l0.67-0.28v-5.91h-3.18l-4.97,6.69
				C136.02,72.7,137.49,72.2,138.6,72.2z M143.79,58.48c-1.19,0.93-2.45,1.39-3.79,1.39c-1.19,0-2.31-0.41-3.35-1.23l-0.89,0.56
				v5.63h3.35L143.79,58.48z"/>
		</g>
		<path d="M112.26,71.98V47.04c0-1.38-0.19-2.83-0.56-4.35l1.17-0.33l0.67,3.68c0.74-2.01,1.9-3.76,3.46-5.24l0.95,0.61
			c-1.19,1.53-1.79,3.51-1.79,5.97v12.61l6.03-4.85l4.07,2.85l1.79-1.45l0.84,1l-2.68,2.18v12.22l1.28,0.06v1.28
			c-2.34,0-4.35,0.26-6.03,0.78c-1.71,0.56-3.48,1.53-5.3,2.9l-4.3-2.85l-1.67,1.28l-0.73-0.89L112.26,71.98z M122.3,60.26
			l-2.29-1.67l-3.85,3.07v9.82l2.9,1.95c0.86-0.48,1.93-0.89,3.24-1.23V60.26z"/>
	</g>
	<path class="st0" d="M60.56,24.77c-0.28-0.06-0.53,0.08-0.73,0.42c-0.02,0.04-0.04,0.08-0.06,0.12c-0.02,0.03-0.03,0.06-0.04,0.08
		l-0.01,0.01c-0.05,0.09-0.11,0.19-0.18,0.3c-0.23,0.38-0.64,1.01-1.3,1.83c-0.29,0.37-0.65,0.8-1.08,1.3
		c-0.39,0.45-0.85,0.97-1.38,1.52l-1.71,1.77l-1.88,1.98l-1.4,1.17l-3.99,3.34l-0.19,0.16l-0.99,0.67
		c-0.85,0.58-1.82,1.23-2.79,1.91c-1.91,1.33-3.96,2.82-5.99,4.61c-1.09,0.96-2.09,1.96-2.99,2.97l-0.56,0.66l-0.07-0.09
		c-0.12-0.16-0.24-0.3-0.35-0.43l-0.05-0.07c-0.1-0.12-0.2-0.24-0.3-0.36c-0.47-0.55-0.98-1.1-1.52-1.65
		c-0.99-1-2.09-1.99-3.37-3.05c-2.06-1.71-4.24-3.27-6.54-4.92c-0.32-0.23-0.64-0.46-0.96-0.69c-2.4-1.73-5.11-3.69-7.51-5.99
		c-1.27-1.22-2.29-2.4-3.14-3.6c-0.96-1.37-1.68-2.79-2.16-4.2c-0.51-1.51-0.76-3.09-0.75-4.69c0-0.12,0.01-0.25,0.01-0.37
		c0-0.08,0.01-0.17,0.01-0.24c0.01-0.13,0.02-0.25,0.02-0.38c0.01-0.08,0.01-0.16,0.02-0.24c0.01-0.12,0.02-0.25,0.04-0.38
		c0.01-0.08,0.02-0.16,0.03-0.24l0.02-0.13c0.02-0.16,0.04-0.32,0.07-0.47l0.11-0.64c0.02-0.12,0.05-0.25,0.08-0.37
		c0.02-0.08,0.04-0.16,0.05-0.24l0.07-0.3l0.08-0.29c0.02-0.08,0.05-0.16,0.07-0.24c0.04-0.13,0.07-0.25,0.11-0.37
		c0.25-0.76,0.57-1.53,0.95-2.28c0.38-0.7,0.84-1.4,1.36-2.07c0.49-0.61,1.06-1.2,1.75-1.81l0.62-0.51l0.39-0.29L12.41,8
		c0.23-0.18,0.48-0.34,0.74-0.51c0.11-0.07,0.23-0.14,0.34-0.22c1.38-0.85,2.99-1.43,4.78-1.71c0.48-0.07,0.92-0.13,1.34-0.16
		c0.46-0.04,0.89-0.05,1.3-0.04c0.88,0.02,1.72,0.13,2.5,0.34c0.81,0.22,1.59,0.55,2.34,0.97c0.73,0.41,1.45,0.94,2.14,1.55
		c0.34,0.3,0.67,0.63,0.98,0.96c0.26,0.28,0.54,0.62,0.84,1.02c0.07,0.09,0.14,0.19,0.21,0.28l0.29,0.41
		c0.28,0.41,0.57,0.85,0.86,1.32c0.36,0.6,0.74,1.23,1.1,1.85c0.2,0.34,0.4,0.67,0.59,1l0.46,0.78l1.79-3.01
		c0.45-0.77,0.89-1.45,1.34-2.1l0.35-0.49c0.12-0.17,0.23-0.31,0.34-0.44c0.1-0.13,0.22-0.27,0.34-0.41
		c0.03-0.04,0.06-0.07,0.1-0.11c0.02-0.02,0.04-0.04,0.06-0.07l0.19-0.2c1.08-1.11,2.23-1.98,3.42-2.58
		c0.09-0.04,0.21-0.11,0.36-0.2c0.21-0.12,0.48-0.28,0.8-0.45c0.57-0.3,1.23-0.59,1.86-0.82c0.43-0.16,0.88-0.3,1.28-0.43
		c0.25-0.08,0.48-0.15,0.69-0.22c0.65-0.22,1.28-0.49,1.33-1.08c0.04-0.51-0.4-0.93-1.3-1.25c-0.69-0.24-1.61-0.4-2.52-0.42
		c-0.88-0.02-1.9,0.09-2.78,0.31c-0.79,0.19-1.42,0.44-1.71,0.59c-1.64,0.82-3.19,1.98-4.61,3.46l-0.24,0.25L34.25,6.3
		c-0.06,0.07-0.13,0.14-0.18,0.2c-0.16,0.19-0.32,0.38-0.46,0.56c-0.12,0.15-0.24,0.3-0.37,0.48C32.83,7,32.46,6.56,32.08,6.16
		c-0.4-0.43-0.83-0.84-1.27-1.23c-0.92-0.82-1.9-1.52-2.91-2.08c-0.53-0.3-1.08-0.56-1.63-0.79c-0.58-0.24-1.17-0.44-1.73-0.59
		c-1.13-0.3-2.32-0.46-3.56-0.48c-0.55-0.01-1.13,0.01-1.73,0.06c-0.53,0.04-1.08,0.11-1.67,0.21c-0.56,0.09-1.12,0.21-1.66,0.35
		c-0.61,0.16-1.14,0.32-1.63,0.5c-0.55,0.2-1.08,0.42-1.58,0.67c-0.51,0.25-1.02,0.53-1.49,0.83L11.2,3.62
		c-0.11,0.08-0.23,0.15-0.34,0.22c-0.33,0.22-0.68,0.44-1.01,0.7L9.37,4.9L8.58,5.56L8.57,5.57C7.68,6.36,6.94,7.14,6.29,7.96
		C5.6,8.84,5.01,9.77,4.51,10.72c-0.5,0.98-0.9,1.98-1.22,2.98c-0.05,0.17-0.1,0.35-0.15,0.51c-0.02,0.08-0.04,0.16-0.07,0.25
		l-0.1,0.37l-0.09,0.4c-0.02,0.08-0.03,0.16-0.05,0.24c-0.04,0.17-0.07,0.34-0.11,0.51l-0.12,0.75c-0.04,0.22-0.06,0.44-0.09,0.65
		l-0.02,0.14c-0.01,0.08-0.02,0.17-0.03,0.25c-0.02,0.17-0.04,0.34-0.05,0.52c0,0.08-0.01,0.16-0.02,0.24
		c-0.01,0.17-0.02,0.35-0.03,0.53c0,0.08,0,0.16-0.01,0.24c0,0.18-0.01,0.35-0.01,0.53c0,2.07,0.35,4.1,1.03,6.04
		c0.62,1.78,1.54,3.53,2.75,5.21c1.01,1.41,2.23,2.77,3.7,4.15c2.65,2.47,5.51,4.46,8.03,6.22c0.36,0.25,0.73,0.5,1.09,0.75
		c2.25,1.56,4.37,3.03,6.32,4.58c1.21,0.96,2.25,1.86,3.16,2.74c0.49,0.48,0.96,0.96,1.39,1.44c0.09,0.1,0.18,0.2,0.26,0.3
		l0.06,0.07c0.1,0.11,0.2,0.23,0.31,0.36l0.2,0.25c0.06,0.07,0.11,0.14,0.17,0.22c0.03,0.04,0.07,0.09,0.1,0.13
		c0.06,0.08,0.12,0.16,0.18,0.24c0.12,0.16,0.23,0.3,0.34,0.46l0.03,0.04l0.51,0.51c0.07,0.07,0.13,0.1,0.17,0.12l0.51,0.26
		c0.05,0.03,0.12,0.06,0.21,0.09c0.1,0.03,0.22,0.04,0.34,0.04c0.1,0,0.19-0.01,0.28-0.03c0.1-0.02,0.19-0.06,0.29-0.11l0.59-0.33
		l0.05-0.05c0.05-0.04,0.09-0.09,0.12-0.13c0.01-0.02,0.03-0.03,0.05-0.05l0.49-0.55l0.62-0.84l0.37-0.46l0.31-0.37
		c0.78-0.93,1.66-1.86,2.63-2.76c1.83-1.71,3.76-3.21,5.57-4.57c0.8-0.6,1.58-1.18,2.35-1.73l1.32-0.97
		c0.05-0.04,0.11-0.08,0.17-0.14l5.52-5.06l1.86-2.2l1.58-1.89c0.54-0.65,0.99-1.26,1.33-1.72c0.4-0.56,0.73-1.05,1-1.5
		c0.54-0.86,0.93-1.65,1.14-2.28l0.01-0.02c0.04-0.14,0.07-0.26,0.1-0.37c0.03-0.12,0.04-0.23,0.05-0.3l0.01-0.06
		C61.05,24.97,60.75,24.81,60.56,24.77z"/>
	<g>
		<g>
			<g>
				<path class="st0" d="M60.55,27.98c-1.28,1.82-2.89,3.72-4.83,5.69c-1.94,1.97-4.05,3.97-6.35,5.99
					c-0.07,0.17-0.14,0.32-0.2,0.46c-0.07,0.14-0.14,0.27-0.2,0.4c0.37-0.37,0.79-0.74,1.26-1.11c0.47-0.37,0.99-0.79,1.57-1.26
					c1.31-1.04,2.59-1.78,3.82-2.2c1.23-0.42,2.32-0.59,3.26-0.51c0.94,0.08,1.7,0.4,2.28,0.96c0.57,0.56,0.86,1.27,0.86,2.15
					c0,0.88-0.29,1.78-0.86,2.71c-0.57,0.93-1.17,1.81-1.8,2.66c-0.62,0.84-1.16,1.59-1.62,2.25c-0.46,0.66-0.58,1.14-0.38,1.44
					c0.2,0.34,0.53,0.47,0.99,0.4c0.46-0.07,0.97-0.26,1.54-0.58c0.57-0.32,1.16-0.72,1.77-1.19c0.61-0.47,1.15-0.94,1.62-1.42
					c0.51-0.51,0.98-0.78,1.42-0.83c0.44-0.05,0.77,0.03,0.99,0.25c0.22,0.22,0.3,0.55,0.25,0.99c-0.05,0.44-0.33,0.91-0.83,1.42
					c-0.51,0.51-1.14,1.13-1.9,1.87c-0.76,0.74-1.58,1.46-2.45,2.15c-0.88,0.69-1.8,1.29-2.76,1.8c-0.96,0.51-1.9,0.76-2.81,0.76
					c-0.54,0-1.05-0.14-1.54-0.43c-0.49-0.29-0.89-0.67-1.21-1.16c-0.32-0.49-0.54-1.06-0.66-1.72c-0.12-0.66-0.08-1.37,0.13-2.15
					c0.24-0.94,0.66-1.88,1.26-2.81c0.61-0.93,1.21-1.79,1.8-2.58c0.59-0.79,1.09-1.47,1.49-2.02c0.4-0.56,0.52-0.97,0.35-1.24
					c-0.27-0.37-0.78-0.41-1.52-0.13c-0.74,0.29-1.62,0.82-2.63,1.59c-1.01,0.78-2.1,1.76-3.26,2.96c-1.16,1.2-2.3,2.5-3.41,3.92
					c-0.47,1.08-0.9,2-1.29,2.76c-0.39,0.76-0.68,1.31-0.89,1.64c-0.44,0.67-0.94,1.1-1.52,1.29c-0.57,0.18-1.11,0.19-1.62,0.03
					c-0.51-0.17-0.93-0.48-1.26-0.94c-0.34-0.46-0.51-1.02-0.51-1.69c0-0.64,0.24-1.47,0.71-2.48c0.47-1.01,1.05-2.13,1.74-3.36
					c0.69-1.23,1.42-2.51,2.17-3.84c0.76-1.33,1.44-2.65,2.05-3.97c1.52-3.27,2.98-6.22,4.37-8.85c1.4-2.63,2.79-4.8,4.17-6.52
					c1.62-2.02,3.17-3.26,4.65-3.72c1.48-0.46,2.63-0.31,3.44,0.43c0.81,0.74,1.14,1.97,0.99,3.69
					C63.05,23.63,62.17,25.66,60.55,27.98z M56.91,24.8c-0.74,0.98-1.56,2.33-2.45,4.05c-0.89,1.72-1.81,3.59-2.76,5.61
					c1.45-1.52,2.81-3.03,4.07-4.53c1.26-1.5,2.22-2.79,2.86-3.87c0.57-1.04,0.93-1.86,1.06-2.45c0.13-0.59,0.1-0.94-0.1-1.06
					c-0.2-0.12-0.54,0.01-1.01,0.38C58.1,23.3,57.55,23.92,56.91,24.8z"/>
				<path class="st0" d="M69.09,36.98c0.74-0.47,1.53-0.83,2.38-1.09c0.84-0.25,1.54-0.34,2.1-0.25c0.56,0.08,0.88,0.34,0.96,0.76
					c0.08,0.42-0.28,1.07-1.09,1.95c-1.08,1.15-1.98,2.27-2.71,3.36c-0.73,1.1-1.29,2.1-1.69,3.01c-0.4,0.91-0.64,1.69-0.71,2.35
					c-0.07,0.66,0.03,1.12,0.3,1.39c0.57,0.54,1.33,0.69,2.28,0.46c0.94-0.24,2.01-0.78,3.19-1.62c0.1-1.01,0.36-2.05,0.78-3.11
					c0.42-1.06,0.94-2.09,1.54-3.08c0.61-0.99,1.28-1.9,2.02-2.71c0.74-0.81,1.47-1.46,2.17-1.95c0.71-0.49,1.38-0.79,2.02-0.91
					c0.64-0.12,1.16,0.04,1.57,0.48c0.44,0.47,0.61,1.14,0.51,2c-0.1,0.86-0.41,1.8-0.94,2.83c-0.52,1.03-1.21,2.12-2.07,3.26
					c-0.86,1.15-1.81,2.24-2.86,3.29c0.07,0.4,0.24,0.71,0.51,0.91c0.34,0.24,0.76,0.32,1.26,0.25c0.51-0.07,1.07-0.26,1.69-0.58
					c0.62-0.32,1.28-0.75,1.97-1.29c0.69-0.54,1.41-1.16,2.15-1.87c0.54-0.54,1.04-0.84,1.49-0.91c0.46-0.07,0.79,0.01,1.01,0.23
					c0.22,0.22,0.29,0.56,0.23,1.01c-0.07,0.46-0.37,0.95-0.91,1.49c-1.18,1.18-2.36,2.26-3.54,3.24c-1.18,0.98-2.33,1.74-3.44,2.3
					c-1.11,0.56-2.17,0.83-3.16,0.81c-0.99-0.02-1.9-0.45-2.71-1.29c-0.24-0.2-0.47-0.51-0.71-0.91c-0.91,0.61-1.84,1.11-2.78,1.52
					c-0.94,0.4-1.86,0.67-2.76,0.78c-0.89,0.12-1.74,0.07-2.55-0.15c-0.81-0.22-1.55-0.63-2.23-1.24c-0.94-0.84-1.47-1.93-1.59-3.26
					c-0.12-1.33,0.08-2.7,0.58-4.1c0.51-1.4,1.26-2.76,2.25-4.07C66.62,38.96,67.78,37.86,69.09,36.98z"/>
				<path class="st0" d="M106.82,28.49c-0.84,1.15-1.76,2.3-2.76,3.46c-0.99,1.16-2.03,2.32-3.11,3.46
					c0.67,0.71,1.45,1.27,2.33,1.69c0.88,0.42,1.77,0.76,2.68,1.01c0.91,0.25,1.81,0.44,2.71,0.56c0.89,0.12,1.69,0.21,2.4,0.28
					c0.51,0.03,0.84,0.18,1.01,0.43c0.17,0.25,0.22,0.54,0.15,0.86c-0.07,0.32-0.26,0.61-0.58,0.86c-0.32,0.25-0.73,0.4-1.24,0.43
					c-1.05,0.07-2.25,0.07-3.62,0c-1.37-0.07-2.65-0.32-3.87-0.76c-0.07,1.31-0.36,2.7-0.89,4.15c-0.52,1.45-1.25,2.79-2.17,4.02
					c-0.93,1.23-2.04,2.25-3.34,3.06c-1.3,0.81-2.74,1.21-4.32,1.21c-1.01,0-1.93-0.23-2.76-0.68c-0.83-0.46-1.49-1.1-2-1.95
					c-0.51-0.84-0.84-1.85-1.01-3.03c-0.17-1.18-0.12-2.49,0.15-3.94c0.3-1.79,0.89-3.72,1.77-5.79c0.88-2.07,1.93-4.13,3.16-6.17
					c1.23-2.04,2.59-3.97,4.07-5.79c1.48-1.82,2.97-3.35,4.45-4.6c1.85-1.58,3.57-2.54,5.16-2.86c1.58-0.32,2.77-0.13,3.57,0.58
					c0.79,0.71,1.09,1.89,0.88,3.54C109.45,24.17,108.51,26.16,106.82,28.49z M98.22,38.25c-1.31,1.31-2.55,2.51-3.69,3.59
					c-1.15,1.08-2.09,1.99-2.83,2.73c-0.03,0.98,0.12,1.78,0.46,2.4c0.34,0.62,0.93,1,1.77,1.14c0.84,0.17,1.63-0.14,2.38-0.94
					c0.74-0.79,1.33-1.75,1.77-2.88c0.44-1.13,0.69-2.28,0.76-3.44C98.9,39.69,98.69,38.82,98.22,38.25z M102.52,24.49
					c-0.78,0.57-1.63,1.42-2.55,2.55c-0.93,1.13-1.85,2.41-2.76,3.84c-0.91,1.43-1.76,2.94-2.55,4.53c-0.79,1.59-1.44,3.12-1.95,4.6
					c1.11-1.11,2.27-2.29,3.46-3.54c1.2-1.25,2.34-2.48,3.44-3.69c1.1-1.21,2.07-2.38,2.93-3.49c0.86-1.11,1.51-2.09,1.95-2.93
					c0.57-1.18,0.66-1.98,0.25-2.4C104.34,23.54,103.6,23.72,102.52,24.49z"/>
				<path class="st0" d="M126.19,28.49c-1.79,2.73-3.73,5.06-5.82,6.98c0.67,0.67,1.45,1.22,2.33,1.64
					c0.88,0.42,1.77,0.76,2.68,1.01c0.91,0.25,1.8,0.44,2.68,0.56c0.88,0.12,1.67,0.21,2.38,0.28c0.51,0.03,0.84,0.18,1.01,0.43
					c0.17,0.25,0.22,0.54,0.15,0.86c-0.07,0.32-0.26,0.61-0.58,0.86c-0.32,0.25-0.73,0.4-1.24,0.43c-1.05,0.07-2.25,0.07-3.62,0
					c-1.37-0.07-2.66-0.32-3.87-0.76c-0.07,1.31-0.36,2.7-0.89,4.15c-0.52,1.45-1.25,2.79-2.17,4.02c-0.93,1.23-2.04,2.25-3.34,3.06
					c-1.3,0.81-2.74,1.21-4.32,1.21c-1.01,0-1.93-0.23-2.76-0.68c-0.83-0.46-1.49-1.1-2-1.95c-0.51-0.84-0.84-1.85-1.01-3.03
					c-0.17-1.18-0.12-2.49,0.15-3.94c0.3-1.79,0.89-3.72,1.77-5.79c0.88-2.07,1.93-4.13,3.16-6.17c1.23-2.04,2.59-3.97,4.07-5.79
					c1.48-1.82,2.97-3.35,4.45-4.6c1.85-1.58,3.56-2.55,5.11-2.91c1.55-0.35,2.71-0.19,3.49,0.48c0.78,0.67,1.06,1.84,0.86,3.49
					C128.67,23.97,127.77,26.03,126.19,28.49z M117.34,38c-0.94,0.67-1.88,1.26-2.81,1.77c-0.93,0.51-1.86,0.93-2.81,1.26
					c-0.27,0.91-0.46,1.78-0.58,2.6c-0.12,0.83-0.12,1.55,0,2.17c0.12,0.62,0.35,1.14,0.68,1.54c0.34,0.4,0.83,0.66,1.47,0.76
					c0.61,0.1,1.18-0.03,1.72-0.4c0.54-0.37,1.02-0.88,1.44-1.52c0.42-0.64,0.78-1.37,1.09-2.17c0.3-0.81,0.51-1.61,0.61-2.4
					c0.1-0.79,0.09-1.51-0.03-2.15C118,38.82,117.74,38.33,117.34,38z M121.89,24.49c-0.64,0.47-1.33,1.15-2.07,2.02
					c-0.74,0.88-1.5,1.87-2.28,2.98c-0.78,1.11-1.53,2.31-2.25,3.59c-0.73,1.28-1.39,2.56-2,3.84c1.15-0.57,2.28-1.31,3.39-2.2
					c1.11-0.89,2.13-1.83,3.06-2.81c0.93-0.98,1.74-1.95,2.45-2.93c0.71-0.98,1.26-1.85,1.67-2.63c0.57-1.18,0.66-1.98,0.25-2.4
					C123.71,23.54,122.97,23.72,121.89,24.49z"/>
				<path class="st0" d="M141.76,36.53c0.3-0.24,0.73-0.42,1.29-0.56c0.56-0.13,1.06-0.16,1.52-0.08c0.46,0.08,0.78,0.3,0.99,0.66
					c0.2,0.35,0.1,0.9-0.3,1.64c-1.28,2.26-2.55,4.79-3.79,7.59c-1.25,2.8-2.58,5.55-4,8.24c0.37,0.24,0.69,0.5,0.96,0.78
					c0.27,0.29,0.49,0.63,0.66,1.04c0.24,0.57,0.31,1.19,0.23,1.85c-0.08,0.66-0.28,1.21-0.58,1.64c-0.3,0.44-0.66,0.69-1.06,0.76
					c-0.4,0.07-0.79-0.24-1.16-0.91c-0.34-0.54-0.73-0.96-1.16-1.26c-0.84,1.45-1.7,2.79-2.58,4.02c-0.88,1.23-1.8,2.3-2.76,3.21
					c-0.96,0.91-1.96,1.62-2.98,2.12c-1.03,0.51-2.1,0.76-3.21,0.76c-0.78,0-1.47-0.16-2.1-0.48c-0.62-0.32-1.13-0.76-1.52-1.31
					c-0.39-0.56-0.63-1.19-0.73-1.9c-0.1-0.71-0.03-1.47,0.2-2.28c0.3-1.25,0.92-2.39,1.85-3.44c0.93-1.05,2.01-1.96,3.26-2.73
					c1.25-0.78,2.59-1.4,4.02-1.87c1.43-0.47,2.81-0.74,4.12-0.81c0.3-0.54,0.6-1.1,0.89-1.67c0.29-0.57,0.56-1.18,0.83-1.82
					c-1.28,0.88-2.51,1.54-3.69,2c-1.18,0.46-2.19,0.55-3.03,0.28c-1.31-0.4-2.16-1.18-2.53-2.33c-0.37-1.15-0.36-2.46,0.03-3.94
					c0.39-1.48,1.1-3.01,2.12-4.58c1.03-1.57,2.3-2.98,3.82-4.22c0.61-0.51,1.26-0.89,1.97-1.14c0.71-0.25,1.31-0.36,1.8-0.33
					c0.49,0.03,0.8,0.22,0.94,0.56c0.13,0.34-0.05,0.84-0.56,1.52c-0.51,0.67-1.1,1.49-1.8,2.45c-0.69,0.96-1.29,1.91-1.8,2.86
					c-0.51,0.94-0.83,1.82-0.99,2.63c-0.15,0.81,0.04,1.4,0.58,1.77c0.51,0.4,1.18,0.44,2.02,0.1c0.84-0.34,1.8-1.01,2.88-2.02
					c0.4-0.94,0.83-1.89,1.29-2.83c0.46-0.94,0.92-1.8,1.39-2.58c0.47-0.78,0.94-1.46,1.39-2.05
					C140.93,37.28,141.36,36.83,141.76,36.53z M122.33,63.94c0.19,0.39,0.55,0.53,1.07,0.44c0.52-0.1,1.14-0.41,1.86-0.93
					c0.72-0.52,1.51-1.25,2.38-2.18c0.87-0.93,1.77-2.03,2.7-3.31c-1.12,0.23-2.22,0.57-3.31,1.02c-1.08,0.44-2.01,0.96-2.79,1.54
					c-0.77,0.58-1.35,1.17-1.74,1.77C122.12,62.88,122.06,63.43,122.33,63.94z"/>
			</g>
		</g>
	</g>
	<path d="M23.19,72.71c0.69,0,1.6-0.07,2.71-0.21V37.87c-1.76-0.23-3.31-0.88-4.65-1.94l-2.15,1.94v23.67l-6.11,6.04l-1.11-1.18
		l1.94-1.94v-21.1l-4.23,4.16L8.4,46.4l16.59-16.59c1.29,2.36,2.59,3.54,3.89,3.54c0.74,0,2.2-0.9,4.37-2.71l1.04,1.25
		c-0.56,0.51-1.11,1.04-1.67,1.6c-0.56,0.56-1.11,1.11-1.67,1.67c-1.62,1.48-2.78,2.38-3.47,2.71v34.29
		c2.78-0.93,5.18-2.85,7.22-5.76l1.25,0.83c-4.12,6.66-9.69,10-16.73,10"/>
	<path d="M116.16,71.48l2.9,1.95c0.86-0.48,1.93-0.89,3.24-1.23v-8.91l3.91-1.57v10.21l1.28,0.06v1.28c-2.34,0-4.35,0.26-6.03,0.78
		c-1.71,0.56-3.48,1.53-5.3,2.9l-4.3-2.85l-1.67,1.28l-0.73-0.89l2.79-2.51L116.16,71.48z"/>
	<path d="M138.6,72.2c0.86,0,1.88,0.33,3.07,1l0.67-0.28v-5.91h-3.18l-4.97,6.69C136.02,72.7,137.49,72.2,138.6,72.2z M143.07,56.8
		c1.12,0,2.16-0.56,3.12-1.67l1.06,0.78l-6.53,8.93h5.63v7.14h1.45v1.28c-3.42,0-6.34,1.21-8.76,3.63
		c-1.53-1.12-2.92-1.67-4.18-1.67c-1.19,0-2.19,0.58-3.01,1.73l-1-0.67l6.75-9.26h-5.75v-6.86h-1.39v-1.28
		c2.34,0,3.77-0.28,4.88-0.83l0.81,0.92l-0.39,0.24v5.63h3.35l4.69-6.36c-1.19,0.93-2.45,1.39-3.79,1.39"/>
	<path d="M37.21,71.81V46.65c0-0.22-0.03-0.67-0.08-1.34c-0.06-0.67-0.16-1.58-0.31-2.73l1.06-0.33c0.07,0.3,0.18,0.75,0.31,1.37
		c0.13,0.61,0.29,1.4,0.47,2.37c0.67-1.97,1.82-3.72,3.46-5.24l0.89,0.56c-0.41,0.56-0.74,1.07-1,1.53
		c-0.26,0.47-0.47,0.88-0.61,1.26c-0.19,0.67-0.28,1.73-0.28,3.18v13.78l7.09-6.08l3.07,2.96l1.79-1.51l0.84,0.95l-2.96,2.57v13.17
		c0.52,0.04,1.12,0.24,1.79,0.61l-0.56,1.06c-0.67-0.33-1.28-0.5-1.84-0.5c-0.71,0-1.32,0.19-1.84,0.56c-0.67,0.41-1,0.91-1,1.51
		c0,0.41,0.69,1.41,2.06,3.01c1.38,1.6,2.06,2.79,2.06,3.57c0,1.19-0.6,2.44-1.79,3.74c-0.3,0.3-0.71,0.68-1.23,1.14
		c-0.52,0.46-1.19,1.01-2.01,1.65l-0.78-0.95c1.6-1.34,2.4-2.45,2.4-3.35c0-0.41-0.48-1.43-1.45-3.07
		c-0.97-1.64-1.45-2.86-1.45-3.68c0-1.38,0.58-2.7,1.73-3.96V60.15l-1.39-1.28l-4.52,3.91v9.04l1.28,1.23l1.17-1l0.89,1l-4.57,3.85
		l-3.12-2.96l-1.79,1.56l-0.84-1L37.21,71.81z"/>
	<path class="st0" d="M45.98,47.45c-0.47,1.08-0.9,2-1.29,2.76c-0.39,0.76-0.68,1.31-0.89,1.64c-0.44,0.67-0.94,1.1-1.52,1.29
		c-0.57,0.18-1.11,0.19-1.62,0.03c-0.51-0.17-0.93-0.48-1.26-0.94c-0.34-0.46-0.51-1.02-0.51-1.69c0-0.64,0.24-1.47,0.71-2.48
		c0.47-1.01,1.05-2.13,1.74-3.36c0.69-1.23,1.42-2.51,2.17-3.84"/>
	<g>
		<g>
			<path class="st1" d="M94.36,49.02C94.36,49.02,94.36,49.02,94.36,49.02c0.93,0,1.79-0.42,2.57-1.25
				c0.81-0.87,1.47-1.93,1.94-3.16c0.47-1.21,0.74-2.45,0.82-3.7"/>
			<g>
				<path class="st2" d="M99.69,40.9c0.08,0,0.15,0.6,0.03,1.56c-0.12,0.96-0.46,2.28-1.17,3.59c-0.36,0.65-0.78,1.23-1.22,1.71
					c-0.43,0.48-0.93,0.85-1.38,1.07c-0.46,0.22-0.87,0.28-1.15,0.28c-0.28,0-0.43-0.05-0.43-0.09c0-0.05,0.15-0.08,0.39-0.15
					c0.25-0.07,0.59-0.19,0.97-0.43c0.38-0.24,0.78-0.59,1.16-1.06c0.39-0.46,0.77-1.01,1.11-1.63c0.67-1.23,1.06-2.47,1.29-3.37
					C99.51,41.48,99.6,40.9,99.69,40.9z"/>
			</g>
		</g>
		<g>
			<path class="st1" d="M113.68,49.01c0.64,0,1.25-0.2,1.82-0.59c0.63-0.43,1.19-1.02,1.67-1.75c0.45-0.69,0.85-1.48,1.17-2.35
				c0.33-0.87,0.55-1.74,0.65-2.6"/>
			<g>
				<path class="st2" d="M119,41.72c0.08,0.01,0.11,0.57-0.06,1.45c-0.17,0.88-0.55,2.07-1.26,3.26c-0.35,0.59-0.76,1.13-1.21,1.54
					c-0.44,0.42-0.9,0.73-1.34,0.91c-0.43,0.18-0.82,0.23-1.07,0.22c-0.26-0.01-0.4-0.06-0.4-0.1c0-0.05,0.14-0.08,0.36-0.15
					c0.23-0.07,0.55-0.17,0.91-0.38c0.35-0.2,0.74-0.52,1.12-0.92c0.38-0.4,0.74-0.89,1.07-1.45c0.66-1.12,1.09-2.24,1.37-3.05
					C118.79,42.24,118.91,41.71,119,41.72z"/>
			</g>
		</g>
		<g>
			<path class="st2" d="M20.54,2.16c0,0.02-0.1,0.05-0.28,0.07c-0.09,0.01-0.2,0.02-0.34,0.04c-0.13,0.02-0.29,0.03-0.46,0.06
				c-0.68,0.09-1.67,0.23-2.86,0.56c-1.18,0.33-2.56,0.84-3.97,1.63C11.24,5.3,9.79,6.36,8.5,7.71C7.22,9.05,6.22,10.54,5.53,12
				c-0.35,0.73-0.61,1.45-0.84,2.14c-0.23,0.68-0.41,1.33-0.54,1.93c-0.27,1.2-0.39,2.19-0.45,2.88c-0.06,0.69-0.08,1.07-0.13,1.07
				c-0.04,0-0.1-0.38-0.12-1.08c-0.01-0.7,0.03-1.72,0.26-2.96c0.11-0.62,0.27-1.29,0.48-2C4.4,13.27,4.65,12.52,5,11.75
				c0.68-1.53,1.71-3.09,3.05-4.49C9.39,5.87,10.9,4.79,12.37,4c1.47-0.79,2.91-1.27,4.14-1.56c1.23-0.28,2.25-0.36,2.95-0.37
				c0.18,0,0.33,0,0.47,0c0.13,0.01,0.25,0.01,0.34,0.02C20.45,2.12,20.54,2.14,20.54,2.16z"/>
		</g>
		<g>
			<g>
				<path class="st1" d="M50.72,28.44c1.37-2.57,2.74-4.72,4.08-6.39c1.5-1.88,2.93-3.03,4.23-3.43c0.48-0.15,0.91-0.22,1.29-0.22
					 M50.76,40.09c0.48-0.37,1.01-0.8,1.58-1.27c1.23-0.98,2.43-1.67,3.56-2.05c0.93-0.32,1.77-0.48,2.5-0.48
					c0.14,0,0.28,0.01,0.41,0.02"/>
				<g>
					<path class="st2" d="M58.8,36.3c-0.01,0.1-0.52,0.1-1.3,0.28c-0.39,0.09-0.85,0.22-1.35,0.4c-0.5,0.18-1.03,0.41-1.56,0.71
						c-0.54,0.29-1.03,0.61-1.48,0.91c-0.22,0.15-0.43,0.3-0.62,0.44c-0.2,0.14-0.38,0.28-0.55,0.39c-0.68,0.47-1.13,0.73-1.18,0.66
						c-0.05-0.07,0.29-0.45,0.9-1.01c0.15-0.14,0.32-0.29,0.5-0.45c0.19-0.16,0.39-0.33,0.61-0.5c0.44-0.34,0.95-0.68,1.52-0.99
						c0.57-0.31,1.15-0.55,1.69-0.7c0.54-0.16,1.04-0.25,1.46-0.29C58.29,36.06,58.82,36.23,58.8,36.3z"/>
				</g>
				<g>
					<path class="st2" d="M60.32,18.4c0,0.05-0.2,0.08-0.54,0.17c-0.34,0.1-0.84,0.25-1.38,0.55c-0.55,0.31-1.15,0.77-1.76,1.35
						c-0.61,0.59-1.22,1.29-1.82,2.07c-1.21,1.56-2.18,3.07-2.88,4.16c-0.7,1.1-1.14,1.78-1.22,1.74c-0.07-0.04,0.23-0.8,0.83-1.96
						c0.61-1.16,1.53-2.73,2.77-4.33c0.62-0.79,1.27-1.52,1.93-2.11c0.66-0.59,1.33-1.04,1.95-1.33c0.31-0.14,0.61-0.23,0.87-0.29
						c0.26-0.06,0.49-0.09,0.68-0.1C60.12,18.3,60.32,18.35,60.32,18.4z"/>
				</g>
			</g>
			<g>
				<path class="st2" d="M87.05,45.43c0.06,0.06-0.27,0.49-0.88,1.11c-0.31,0.31-0.69,0.66-1.13,1.03c-0.45,0.37-0.96,0.75-1.54,1.1
					c-0.58,0.35-1.17,0.63-1.74,0.8c-0.29,0.09-0.57,0.15-0.83,0.18c-0.13,0.02-0.27,0.02-0.39,0.02c-0.13,0-0.25,0.01-0.36-0.01
					c-0.47-0.05-0.82-0.21-1.03-0.35c-0.21-0.15-0.29-0.27-0.27-0.3c0.03-0.04,0.15,0.01,0.38,0.08c0.22,0.07,0.54,0.14,0.94,0.13
					c0.1,0,0.2-0.02,0.31-0.03c0.11-0.01,0.22-0.02,0.34-0.05c0.23-0.05,0.48-0.12,0.74-0.22c0.51-0.19,1.05-0.46,1.6-0.79
					c1.1-0.66,2.02-1.41,2.7-1.92C86.55,45.69,86.99,45.37,87.05,45.43z"/>
			</g>
			<g>
				<path class="st2" d="M83.04,36.37c0,0.02-0.04,0.05-0.11,0.07c-0.07,0.02-0.17,0.06-0.3,0.11c-0.26,0.11-0.62,0.28-1.03,0.56
					c-0.82,0.55-1.84,1.52-2.82,2.7c-0.98,1.19-1.7,2.39-2.21,3.27c-0.5,0.88-0.8,1.45-0.88,1.42c-0.08-0.03,0.07-0.66,0.48-1.62
					c0.41-0.95,1.1-2.23,2.12-3.47c1.02-1.23,2.13-2.19,3.08-2.69c0.47-0.25,0.9-0.38,1.19-0.41c0.15-0.02,0.27-0.02,0.35,0
					C83,36.33,83.04,36.35,83.04,36.37z"/>
			</g>
			<g>
				<path class="st2" d="M73.67,36.56c-0.01,0.02-0.08,0-0.21,0c-0.14,0.01-0.33,0-0.59,0.05c-0.5,0.08-1.24,0.3-2.07,0.69
					c-0.41,0.2-0.86,0.45-1.29,0.76c-0.44,0.32-0.89,0.69-1.34,1.11c-0.89,0.84-1.75,1.9-2.49,3.1c-0.37,0.6-0.69,1.22-0.95,1.83
					c-0.07,0.15-0.13,0.31-0.19,0.46c-0.03,0.08-0.06,0.15-0.09,0.23c-0.03,0.08-0.06,0.17-0.1,0.25c-0.15,0.33-0.35,0.63-0.59,0.88
					c-0.06,0.06-0.12,0.12-0.18,0.18c-0.06,0.05-0.12,0.1-0.18,0.15c-0.12,0.1-0.24,0.2-0.35,0.29c-0.23,0.19-0.46,0.38-0.67,0.56
					c-0.45,0.34-0.89,0.63-1.3,0.88c-0.41,0.25-0.8,0.45-1.16,0.6c-0.36,0.15-0.68,0.25-0.95,0.3c-0.27,0.05-0.48,0.07-0.63,0.05
					c-0.14-0.01-0.22-0.03-0.22-0.05s0.07-0.05,0.21-0.08c0.13-0.02,0.33-0.08,0.57-0.16c0.24-0.09,0.53-0.21,0.86-0.38
					c0.32-0.17,0.68-0.39,1.07-0.66c0.39-0.26,0.8-0.57,1.22-0.92c0.2-0.18,0.42-0.37,0.63-0.57c0.11-0.1,0.22-0.2,0.33-0.3
					c0.06-0.05,0.11-0.1,0.17-0.15c0.05-0.05,0.1-0.1,0.15-0.15c0.19-0.21,0.35-0.45,0.46-0.72c0.03-0.07,0.05-0.14,0.08-0.21
					c0.03-0.08,0.06-0.16,0.09-0.24c0.06-0.16,0.12-0.32,0.19-0.48c0.27-0.64,0.6-1.29,0.98-1.92c0.77-1.26,1.68-2.35,2.63-3.2
					c0.48-0.43,0.96-0.8,1.43-1.12c0.48-0.32,0.96-0.56,1.41-0.74c0.9-0.36,1.68-0.52,2.23-0.53c0.27-0.01,0.49,0.04,0.63,0.07
					C73.62,36.48,73.68,36.54,73.67,36.56z"/>
			</g>
			<g>
				<path class="st1" d="M92.26,32.09c1.2-2,2.55-3.91,4-5.69c1.44-1.77,2.9-3.28,4.34-4.49c1.74-1.48,3.34-2.38,4.77-2.67
					c0.43-0.09,0.84-0.13,1.19-0.13"/>
				<g>
					<path class="st2" d="M106.57,19.11c0,0.05-0.28,0.08-0.76,0.18c-0.49,0.1-1.17,0.3-1.96,0.71c-1.58,0.79-3.49,2.39-5.37,4.36
						c-1.88,1.98-3.39,3.96-4.45,5.4c-1.06,1.45-1.69,2.38-1.77,2.33c-0.07-0.04,0.42-1.05,1.4-2.58c0.98-1.52,2.45-3.57,4.36-5.59
						c0.96-1.01,1.94-1.9,2.89-2.64c0.95-0.75,1.9-1.32,2.75-1.69c0.85-0.37,1.6-0.52,2.11-0.54
						C106.28,19.02,106.57,19.07,106.57,19.11z"/>
				</g>
			</g>
			<g>
				<path class="st1" d="M111.63,32.09c1.21-2,2.55-3.91,4-5.69c1.44-1.77,2.9-3.28,4.34-4.49c1.74-1.49,3.34-2.41,4.74-2.73
					c0.47-0.11,0.9-0.16,1.27-0.16"/>
				<g>
					<path class="st2" d="M125.98,19.03c0,0.05-0.28,0.07-0.76,0.19c-0.49,0.11-1.17,0.32-1.96,0.73c-1.58,0.81-3.5,2.41-5.39,4.39
						c-1.89,1.99-3.4,3.97-4.47,5.42c-1.07,1.46-1.69,2.39-1.77,2.34c-0.07-0.04,0.42-1.06,1.4-2.59c0.98-1.53,2.46-3.58,4.38-5.61
						c0.96-1.01,1.95-1.9,2.91-2.65c0.96-0.75,1.9-1.33,2.75-1.7c0.85-0.38,1.6-0.53,2.11-0.57
						C125.7,18.93,125.98,18.99,125.98,19.03z"/>
				</g>
			</g>
			<g>
				<path class="st1" d="M120.49,62.31l0.01-0.02l0-0.02c0.27-1.1,0.82-2.14,1.65-3.07c0.87-0.98,1.9-1.84,3.07-2.57
					c1.18-0.74,2.47-1.34,3.83-1.78c1.35-0.45,2.66-0.7,3.9-0.77 M137.6,44.77c0.29-0.64,0.64-1.42,0.87-1.9
					c0.44-0.92,0.9-1.76,1.35-2.5c0.45-0.74,0.9-1.41,1.34-1.97c0.41-0.53,0.78-0.92,1.12-1.18l0.01-0.01
					c0.14-0.11,0.42-0.27,0.96-0.4c0.27-0.07,0.53-0.1,0.77-0.1c0.14,0,0.27,0.01,0.39,0.03 M125.15,38.95
					c0.95,0.26,1.89,0.46,2.8,0.58c0.49,0.07,0.96,0.13,1.4,0.18c0.21,0.02,0.41-0.05,0.55-0.21l0,0c0.61-0.67,1.28-1.31,2-1.9
					c0.53-0.44,1.11-0.77,1.71-0.99c0.53-0.19,0.98-0.28,1.33-0.28"/>
				<g>
					<path class="st2" d="M134.94,36.32c0,0.05-0.15,0.08-0.41,0.16c-0.26,0.08-0.63,0.21-1.06,0.42c-0.43,0.21-0.91,0.51-1.39,0.92
						c-0.49,0.43-1.01,0.91-1.53,1.45c-0.13,0.13-0.26,0.27-0.38,0.4l-0.05,0.05c-0.02,0.03-0.05,0.05-0.07,0.07
						c-0.05,0.04-0.11,0.08-0.17,0.11c-0.12,0.06-0.25,0.1-0.38,0.11c-0.06,0-0.14,0-0.19-0.01L129.17,40
						c-0.09-0.01-0.17-0.02-0.26-0.04c-0.17-0.03-0.34-0.05-0.5-0.07c-0.65-0.09-1.25-0.21-1.73-0.34
						c-0.98-0.26-1.55-0.51-1.52-0.59c0.02-0.09,0.63,0.02,1.61,0.15c0.49,0.07,1.06,0.14,1.72,0.2c0.16,0.02,0.33,0.03,0.5,0.05
						c0.09,0.01,0.17,0.02,0.26,0.03l0.13,0.01c0.04,0,0.05,0,0.08,0c0.05,0,0.09-0.02,0.13-0.04c0.02-0.01,0.04-0.02,0.06-0.04
						c0.01-0.01,0.02-0.02,0.03-0.02l0.04-0.05c0.13-0.14,0.26-0.28,0.39-0.42c0.54-0.56,1.09-1.04,1.62-1.45
						c0.54-0.43,1.1-0.72,1.59-0.89c0.49-0.17,0.9-0.24,1.19-0.25C134.78,36.23,134.94,36.28,134.94,36.32z"/>
				</g>
				<g>
					<path class="st2" d="M144.42,36.75c-0.01,0.04-0.17,0.05-0.44,0.09c-0.27,0.04-0.66,0.13-1.1,0.32
						c-0.11,0.05-0.22,0.1-0.32,0.17c-0.05,0.03-0.09,0.06-0.14,0.11c-0.05,0.04-0.1,0.09-0.15,0.14c-0.2,0.19-0.41,0.42-0.61,0.67
						c-0.4,0.51-0.82,1.11-1.23,1.75c-0.82,1.28-1.48,2.5-1.95,3.4c-0.47,0.89-0.81,1.43-0.89,1.39c-0.08-0.04,0.11-0.64,0.48-1.58
						c0.37-0.95,0.98-2.23,1.82-3.55c0.42-0.66,0.86-1.26,1.32-1.78c0.23-0.26,0.46-0.49,0.71-0.69c0.06-0.05,0.13-0.1,0.19-0.14
						c0.06-0.04,0.14-0.09,0.21-0.13c0.14-0.07,0.28-0.12,0.41-0.16c0.51-0.15,0.95-0.18,1.24-0.15
						C144.27,36.62,144.42,36.71,144.42,36.75z"/>
				</g>
				<g>
					<path class="st2" d="M132.96,54.08c0.01,0.1-0.88,0.18-2.24,0.54c-1.36,0.36-3.21,1.02-5.05,2.12
						c-0.92,0.55-1.74,1.16-2.43,1.77c-0.34,0.31-0.66,0.62-0.94,0.92c-0.28,0.3-0.51,0.6-0.71,0.88c-0.4,0.57-0.65,1.08-0.81,1.44
						c-0.16,0.36-0.24,0.57-0.29,0.56c-0.04-0.01-0.04-0.24,0.06-0.64c0.09-0.4,0.29-0.97,0.67-1.6c0.19-0.32,0.42-0.65,0.69-0.98
						c0.27-0.33,0.59-0.67,0.93-1c0.69-0.67,1.54-1.32,2.5-1.89c1.91-1.14,3.86-1.75,5.28-2.01C132.05,53.92,132.96,54,132.96,54.08
						z"/>
				</g>
			</g>
		</g>
		<g>
			<path class="st2" d="M43.64,2.8c0,0.09-0.67,0.12-1.71,0.35c-0.51,0.11-1.13,0.28-1.76,0.54c-0.08,0.03-0.16,0.07-0.23,0.1
				c-0.04,0.02-0.07,0.03-0.11,0.06L39.7,3.91C39.54,4,39.38,4.09,39.22,4.19c-0.33,0.19-0.66,0.4-0.99,0.63
				c-1.33,0.91-2.41,1.93-3.15,2.69c-0.73,0.78-1.17,1.29-1.24,1.24c-0.07-0.05,0.24-0.65,0.9-1.53c0.68-0.87,1.74-1.97,3.13-2.92
				c0.35-0.24,0.7-0.45,1.05-0.65c0.17-0.1,0.35-0.19,0.52-0.27l0.13-0.06c0.04-0.02,0.09-0.04,0.14-0.06
				c0.09-0.04,0.18-0.07,0.27-0.1c0.7-0.25,1.35-0.38,1.9-0.44C42.96,2.58,43.64,2.72,43.64,2.8z"/>
		</g>
	</g>
</g>
</svg>
