<svg width="40" height="40" viewBox="0 0 40 40" fill="none" xmlns="http://www.w3.org/2000/svg">
<circle cx="20" cy="20" r="20" fill="url(#paint0_radial_23:52)"/>
<path d="M20.0001 11.8018C22.6702 11.8018 22.9864 11.812 24.0409 11.8601C25.0159 11.9046 25.5454 12.0675 25.8978 12.2044C26.3645 12.3858 26.6977 12.6025 27.0476 12.9524C27.3975 13.3024 27.6142 13.6355 27.7956 14.1023C27.9326 14.4547 28.0955 14.9842 28.14 15.9591C28.1881 17.0136 28.1983 17.3299 28.1983 20C28.1983 22.6701 28.1881 22.9864 28.14 24.0409C28.0955 25.0158 27.9326 25.5453 27.7956 25.8977C27.6142 26.3645 27.3975 26.6976 27.0476 27.0475C26.6977 27.3975 26.3645 27.6142 25.8978 27.7956C25.5454 27.9325 25.0159 28.0954 24.0409 28.1399C22.9866 28.188 22.6704 28.1982 20.0001 28.1982C17.3297 28.1982 17.0135 28.188 15.9592 28.1399C14.9842 28.0954 14.4547 27.9325 14.1023 27.7956C13.6355 27.6142 13.3024 27.3975 12.9525 27.0475C12.6026 26.6976 12.3858 26.3645 12.2044 25.8977C12.0675 25.5453 11.9046 25.0158 11.8601 24.0409C11.812 22.9864 11.8018 22.6701 11.8018 20C11.8018 17.3299 11.812 17.0136 11.8601 15.9591C11.9046 14.9842 12.0675 14.4547 12.2044 14.1023C12.3858 13.6355 12.6025 13.3024 12.9525 12.9525C13.3024 12.6025 13.6355 12.3858 14.1023 12.2044C14.4547 12.0675 14.9842 11.9046 15.9592 11.8601C17.0136 11.812 17.3299 11.8018 20.0001 11.8018ZM20.0001 10C17.2842 10 16.9436 10.0115 15.877 10.0602C14.8126 10.1087 14.0857 10.2778 13.4496 10.525C12.792 10.7805 12.2344 11.1225 11.6784 11.6784C11.1225 12.2344 10.7805 12.792 10.525 13.4496C10.2778 14.0857 10.1087 14.8126 10.0602 15.877C10.0115 16.9436 10 17.2842 10 20C10 22.7158 10.0115 23.0564 10.0602 24.123C10.1087 25.1874 10.2778 25.9143 10.525 26.5504C10.7805 27.208 11.1225 27.7656 11.6784 28.3216C12.2344 28.8775 12.792 29.2195 13.4496 29.475C14.0857 29.7222 14.8126 29.8913 15.877 29.9398C16.9436 29.9885 17.2842 30 20.0001 30C22.7159 30 23.0564 29.9885 24.123 29.9398C25.1874 29.8913 25.9144 29.7222 26.5504 29.475C27.208 29.2195 27.7657 28.8775 28.3217 28.3216C28.8776 27.7656 29.2195 27.208 29.4751 26.5504C29.7223 25.9143 29.8913 25.1874 29.9399 24.123C29.9886 23.0564 30.0001 22.7158 30.0001 20C30.0001 17.2842 29.9886 16.9436 29.9399 15.877C29.8913 14.8126 29.7223 14.0857 29.4751 13.4496C29.2195 12.792 28.8776 12.2344 28.3217 11.6784C27.7657 11.1225 27.208 10.7805 26.5504 10.525C25.9144 10.2778 25.1874 10.1087 24.123 10.0602C23.0564 10.0115 22.7159 10 20.0001 10Z" fill="white"/>
<path d="M20.0047 14.8695C17.1686 14.8695 14.8695 17.1686 14.8695 20.0046C14.8695 22.8407 17.1686 25.1398 20.0047 25.1398C22.8407 25.1398 25.1398 22.8407 25.1398 20.0046C25.1398 17.1686 22.8407 14.8695 20.0047 14.8695ZM20.0047 23.338C18.1637 23.338 16.6713 21.8456 16.6713 20.0046C16.6713 18.1637 18.1637 16.6713 20.0047 16.6713C21.8456 16.6713 23.338 18.1637 23.338 20.0046C23.338 21.8456 21.8456 23.338 20.0047 23.338Z" fill="white"/>
<path d="M26.5425 14.6635C26.5425 15.3262 26.0052 15.8634 25.3424 15.8634C24.6797 15.8634 24.1425 15.3262 24.1425 14.6635C24.1425 14.0007 24.6797 13.4634 25.3424 13.4634C26.0052 13.4634 26.5425 14.0007 26.5425 14.6635Z" fill="white"/>
<defs>
<radialGradient id="paint0_radial_23:52" cx="0" cy="0" r="1" gradientUnits="userSpaceOnUse" gradientTransform="translate(20.0225 7.64706) rotate(90) scale(26.6176 30.5568)">
<stop stop-color="#FF7378"/>
<stop offset="1" stop-color="#EC2028"/>
</radialGradient>
</defs>
</svg>
