<svg width="40" height="40" viewBox="0 0 40 40" fill="none" xmlns="http://www.w3.org/2000/svg">
<circle cx="20" cy="20" r="20" fill="url(#paint0_radial_23:47)"/>
<path fill-rule="evenodd" clip-rule="evenodd" d="M30 13.9239C29.2647 14.2505 28.4734 14.4705 27.6435 14.5698C28.4908 14.0619 29.1414 13.2579 29.4474 12.3C28.6554 12.7706 27.7761 13.1113 26.8422 13.2959C26.0936 12.4986 25.0263 12 23.8471 12C21.5812 12 19.744 13.8372 19.744 16.1031C19.744 16.4244 19.7807 16.7377 19.8507 17.0383C16.4402 16.8677 13.4171 15.2338 11.3932 12.7513C11.0399 13.3572 10.8379 14.0619 10.8379 14.8138C10.8379 16.2371 11.5612 17.493 12.6632 18.2289C11.9899 18.2076 11.3579 18.0229 10.8039 17.7156V17.7669C10.8039 19.7555 12.2192 21.4134 14.0951 21.7913C13.7511 21.8847 13.3884 21.9353 13.0145 21.9353C12.7498 21.9353 12.4925 21.9093 12.2418 21.8613C12.7638 23.4912 14.2797 24.6778 16.0749 24.7112C14.671 25.8111 12.9018 26.4677 10.9793 26.4677C10.6473 26.4677 10.3206 26.4484 10 26.4097C11.8159 27.5736 13.9724 28.2536 16.2896 28.2536C23.8364 28.2536 27.9635 22.0013 27.9635 16.5797C27.9635 16.4017 27.9601 16.2244 27.9515 16.0491C28.7541 15.4691 29.45 14.7465 30 13.9239Z" fill="white"/>
<defs>
<radialGradient id="paint0_radial_23:47" cx="0" cy="0" r="1" gradientUnits="userSpaceOnUse" gradientTransform="translate(20.0225 7.64706) rotate(90) scale(26.6176 30.5568)">
<stop stop-color="#FF7378"/>
<stop offset="1" stop-color="#EC2028"/>
</radialGradient>
</defs>
</svg>
